The Grey (2012) DVDRip

Format                           : AVI
Format/Info                      : Audio Video Interleave
Format profile                   : OpenDML
File size                        : 1.68 GiB
Duration                         : 1h 57mn
Overall bit rate                 : 2 049 Kbps
Writing application              : VirtualDubMod 1.5.10.2 (build 2542/release)
Writing library                  : VirtualDubMod build 2542/release


Video
ID                               : 0
Format                           : MPEG-4 Visual
Format profile                   : AdvancedSimple@L5
Format settings, BVOP            : Yes
Format settings, QPel            : No
Format settings, GMC             : No warppoints
Format settings, Matrix          : Custom
Codec ID                         : XVID
Codec ID/Hint                    : XviD
Duration                         : 1h 57mn
Bit rate                         : 1 862 Kbps
Width                            : 720 pixels
Height                           : 304 pixels
Display aspect ratio             : 2.35:1
Frame rate                       : 23.976 fps
Resolution                       : 24 bits
Colorimetry                      : 4:2:0
Scan type                        : Progressive
Bits/(Pixel*Frame)               : 0.355
Stream size                      : 1.52 GiB (91%)
Writing library                  : XviD 1.2.0.dev47 (UTC 2006-11-01)

Audio
ID                               : 1
Format                           : AC-3
Format/Info                      : Audio Coding 3
Codec ID                         : 2000
Duration                         : 1h 57mn
Bit rate mode                    : Constant
Bit rate                         : 192 Kbps
Channel(s)                       : 2 channels
Channel positions                : L R
Sampling rate                    : 48.0 KHz
Stream size                      : 152 MiB (9%)
Alignment                        : Aligned on interleaves
Interleave, duration             : 68 ms (1.62 video frames)
Interleave, preload duration     : 192 ms

--------------------------------------------------------------------------------------------


Please Show Your Support!




Proudly Guaranteeing only .Avi file torrents!




For more torrents go to:

 
http://www.awsomedownloads.com


New torrents added daily!





For %100 Legit Torrents Always Make Sure xCrazy0328x Is Your Source!


